# xmcd CD database file
#
# Track frame offsets:
#	150
#	16815
#	34401
#	51940
#	69902
#	87323
#	109763
#	128667
#	149221
#	170405
#	186974
#	203819
#
# Disc length: 2954 seconds
#
# Revision: 2
# Processed by: cddbd v1.5.2PL0 Copyright (c) Steve Scherf et al.
# Submitted via: CDex 1.50Beta7
#
DISCID=ac0b880c
DTITLE=Audrey Landers - Secrets
DYEAR=1988
DGENRE=Pop
TTITLE0=Gone with the Wind
TTITLE1=Never wanna dance (When I'm Blue)
TTITLE2=Amor, Amor my Love
TTITLE3=You can tame my Heart
TTITLE4=We never lived a Romance
TTITLE5=Thru the Eyes of Winter
TTITLE6=Starship (We´re All Alone)
TTITLE7=All of my Heart
TTITLE8=It takes 2 to fly
TTITLE9=Chains of Love
TTITLE10=Going out of my mind
TTITLE11=Silverbird
EXTD=YEAR: 1988
EXTT0=
EXTT1=
EXTT2=
EXTT3=
EXTT4=
EXTT5=
EXTT6=
EXTT7=
EXTT8=
EXTT9=
EXTT10=
EXTT11=
PLAYORDER=
